<?xml version="1.0" encoding="utf-8"?>
<!-- Generator: Adobe Illustrator 25.4.1, SVG Export Plug-In . SVG Version: 6.00 Build 0)  -->
<svg version="1.1" id="Layer_1" xmlns="http://www.w3.org/2000/svg" xmlns:xlink="http://www.w3.org/1999/xlink" x="0px" y="0px"
	 viewBox="0 0 314.9 56.9" style="enable-background:new 0 0 314.9 56.9;" xml:space="preserve">
<style type="text/css">
	.st0{fill:#FFFFFF;}
</style>
<g>
	<g>
		<g>
			<path class="st0" d="M247.6,41.4l-0.3,0h-12l-0.6,1.9c-0.1,0.4-0.2,0.5-0.2,0.6c0,0.4,0.3,0.6,0.7,0.6c0.4,0,0.6-0.3,0.8-0.6
				c0.2-0.3,0.9-0.9,3.7-0.9h0v10.9h-2v1.5h7.8v-1.5h-1.9c-0.1,0-0.2,0-0.3,0c-0.2-0.2-0.2-1.7-0.2-2.4V43h0c2.8,0,3.6,0.6,3.7,0.9
				c0.1,0.2,0.3,0.6,0.8,0.6c0.4,0,0.7-0.3,0.7-0.6c0-0.1,0-0.2-0.2-0.6L247.6,41.4z"/>
			<path class="st0" d="M184.2,53.9c-0.2-0.2-0.2-1.7-0.2-2.4v-8.6h1.4v-1.5h-4.5c0,0-3.6,7.7-4.2,8.9c-0.6-1.2-4.6-8.9-4.6-8.9h-5
				v1.5h1c0.8,0,1,0.3,1,2.4v8.6c-0.1,0-0.2,0-0.3,0h-1v1.5h5v-1.5h-1.3c-0.1,0-0.3,0-0.4,0c0,0,0-0.1-0.1-0.3
				c-0.2-1-0.2-2.5-0.2-3.6v-3.9c1,2.1,4.3,8.6,4.3,8.6c0.1,0.2,0.2,0.6,0.6,0.6c0.4,0,0.6-0.4,0.6-0.5l0,0c0,0,2.8-6,4.2-8.9v8.1
				h-1.4v1.5h6.7v-1.5h-1.4C184.4,53.9,184.2,53.9,184.2,53.9"/>
			<path class="st0" d="M163.2,53.9c-0.2-0.2-0.2-1.7-0.2-2.4v-8.6h1.4v-1.5h-4.5c0,0-3.6,7.7-4.2,8.9c-0.6-1.2-4.6-8.9-4.6-8.9h-5
				v1.5h1c0.8,0,1,0.3,1,2.4v8.6c-0.1,0-0.2,0-0.3,0h-1v1.5h5v-1.5h-1.3c-0.1,0-0.3,0-0.4,0c0,0,0-0.1-0.1-0.3
				c-0.2-1-0.2-2.5-0.2-3.6v-3.9c1,2.1,4.3,8.6,4.3,8.6c0.1,0.2,0.2,0.6,0.6,0.6c0.4,0,0.6-0.4,0.6-0.5l0,0c0,0,2.8-6,4.2-8.9v8.1
				h-1.4v1.5h6.7v-1.5h-1.4C163.4,53.9,163.2,53.9,163.2,53.9"/>
			<path class="st0" d="M136.1,41.1c-4.7,0-8.2,3.3-8.2,7.7c0,4.3,3,7,7.7,7c4.7,0,8.2-3.2,8.2-7.7
				C143.8,43.8,140.7,41.1,136.1,41.1 M140.3,49.3c0,4.6-2.8,5.1-4.1,5.1c-1.7,0-4.9-1.4-4.9-6.6c0-4.6,2.9-5.1,4.1-5.1
				C137.1,42.6,140.3,44,140.3,49.3"/>
			<path class="st0" d="M256.1,53.9c-0.2-0.2-0.2-1.7-0.2-2.4v-8.6h1.4v-1.5h-6.7v1.5h1.4c0.1,0,0.2,0,0.3,0
				c0.2,0.2,0.2,1.7,0.2,2.4v8.6h-1.4v1.5h6.7v-1.5h-1.4C256.3,53.9,256.2,53.9,256.1,53.9"/>
			<path class="st0" d="M217.2,42.9h1.3c0.1,0,0.3,0,0.4,0c0,0,0.1,0.1,0.1,0.3c0.2,1,0.2,2.5,0.2,3.6v3.4c-1.2-1.2-8.5-8.8-8.5-8.8
				h-4.5v1.5h1.1c0.7,0,1,0.9,1,1.7V54c-0.1,0-0.2,0-0.3,0h-1v1.5h5V54h-1.3c-0.1,0-0.3,0-0.4,0c0,0,0-0.1-0.1-0.3
				c-0.2-1-0.2-2.5-0.2-3.6v-4.8c1.2,1.2,9.5,9.8,9.5,9.8c0.3,0.3,0.5,0.5,0.9,0.5c0.4,0,0.6-0.3,0.6-0.6V42.9c0.1,0,0.2,0,0.3,0h1
				v-1.5h-5V42.9z"/>
			<path class="st0" d="M230.5,53.9c-0.2-0.2-0.2-1.7-0.2-2.4v-8.6h1.4v-1.5H225v1.5h1.4c0.1,0,0.3,0,0.3,0c0.2,0.2,0.2,1.7,0.2,2.4
				v8.6h-1.4v1.5h6.7v-1.5h-1.4C230.7,53.9,230.5,53.9,230.5,53.9"/>
			<path class="st0" d="M199,42.9h1.3c0.1,0,0.4,0,0.4,0c0,0,0,0.1,0.1,0.3c0.2,1,0.2,2.5,0.2,3.6v3.2c0,3.5-2.5,4-4,4
				c-3,0-3.4-2.1-3.4-4.2v-6.9h1.4v-1.5h-6.7v1.5h1.4c0.1,0,0.3,0,0.3,0c0.2,0.2,0.2,1.7,0.2,2.4v5.5c0,1.8,0.8,4.9,6.3,4.9
				c2.9,0,6.3-1.5,6.3-5.7v-7.2c0.1,0,0.2,0,0.3,0h1v-1.5h-5V42.9z"/>
			<path class="st0" d="M281.9,46.7c-1.8-0.6-2.8-1-2.8-2.1c0-1.3,1.6-1.8,2.6-1.8c0.8,0,2.1,0.3,2.2,0.9c0,0.2,0.2,0.7,0.7,0.7
				c0.5,0,0.7-0.4,0.7-0.7l0-0.9l-0.1-1.1l-0.2-0.1c-0.8-0.3-1.7-0.4-2.9-0.4c-2.8,0-5.8,1.5-5.8,4.2c0,2.8,2.4,3.6,4.4,4.3
				c1.9,0.6,3,1.1,3,2.4c0,1.5-1.6,2.2-3.1,2.2c-1.1,0-2.8-0.5-3.1-1.4c-0.1-0.2-0.2-0.7-0.8-0.7c-0.2,0-0.7,0.1-0.7,0.7
				c0,0.2,0,0.4,0.1,0.8l0.3,1.4l0.2,0.1c1.2,0.4,2.5,0.6,3.8,0.6c6,0,6.1-4.5,6.1-4.5C286.4,48.2,283.9,47.4,281.9,46.7"/>
			<path class="st0" d="M123.9,51.8c-0.6,0-0.7,0.5-0.7,0.6l0,0c-0.2,1.1-2.7,1.8-3.9,1.8c-3.6,0-5.2-2.9-5.2-5.6
				c0-3.4,2.3-5.9,5.7-5.9c1.4,0,2.7,0.6,2.8,0.9l0,0c0.1,0.4,0.2,0.8,0.7,0.8c0.7,0,0.7-0.4,0.9-2.2l0-0.3l-0.3-0.1
				c-1.4-0.5-2.7-0.8-4-0.8c-5.4,0-9.4,3.4-9.4,7.9c0,4.3,3,6.9,8.1,6.9c1.9,0,4-0.4,5.5-1.1l0.2-0.1l0.2-1.8l0-0.5
				C124.6,52.1,124.4,51.8,123.9,51.8"/>
			<path class="st0" d="M272.3,52.4c-0.4,0-0.6,0.3-0.6,0.4l0,0c-0.6,1-3.7,1-4.7,1h-0.8c-0.1,0-0.2,0-0.2,0
				c-0.2-0.2-0.2-2.4-0.2-4.1v-1.1h1.7c1.6,0,2,0.1,2.1,0.2c0,0,0,0,0,0v1.1h1.5v-4.4h-1.5v1.1c0,0.3,0,0.5-2.1,0.5h-1.7v-4h1.5
				c2.4,0,3.3,0.4,3.4,0.6c0,0.3,0.1,0.8,0.8,0.8c0.6,0,0.6-0.2,0.9-2.5l0.1-0.4h-12v1.5h1.4c0.1,0,0.2,0,0.3,0
				c0.2,0.2,0.2,1.7,0.2,2.4v8.6h-1.4v1.5h11.3l0.3-0.9c0.3-1,0.4-1.2,0.4-1.4C272.9,52.7,272.6,52.4,272.3,52.4"/>
			<path class="st0" d="M305.6,4.8v2.5h2.8c0.1,0,0.2,0,0.3,0c-0.1,0.5-0.9,2.4-4.7,8.9c-0.9-1.5-5.3-8.8-5.3-8.8l0.1,0.1
				c0,0-0.1-0.1-0.1-0.2h2.3V4.8h-11.9v2.5h2.1c0.4,0,0.7,0,2.7,3.2c0,0,5.3,8.7,5.4,9v8.3h0h-2.5v2.5h12.1v-2.5h-2.5
				c-0.6,0-0.6,0-0.7-0.3c-0.2-0.6-0.2-2.1-0.2-4.3v-4c0.2-0.3,6.6-11.2,6.6-11.2c0.5-0.8,0.5-0.8,1.1-0.8h1.7V4.8H305.6z"/>
			<path class="st0" d="M199.9,27.5c-0.2-0.6-0.3-2.1-0.3-4.3V7.5h0.2c5,0,6.6,0.9,7,1.7c0.3,0.5,0.6,1.1,1.3,1.1
				c0.7,0,1.2-0.5,1.2-1.1c0-0.2-0.1-0.3-0.3-1l-1.2-3.3l-0.4,0h-22l-1.2,3.3c-0.3,0.7-0.3,0.9-0.3,1c0,0.6,0.5,1.1,1.2,1.1
				c0.8,0,1.1-0.6,1.3-1.1c0.4-0.8,2-1.7,7-1.7h0.2v20.3h0h-3.8v2.5H204v-2.5h-3.4C200,27.8,200,27.8,199.9,27.5"/>
			<path class="st0" d="M114.8,7.5c0.2,0.6,0.3,2.1,0.3,4.3v16h0h-2.5v2.5h20.7l0.5-1.6c0.6-1.9,0.7-2.2,0.7-2.6
				c0-0.6-0.5-1.1-1.1-1.1c-0.7,0-0.9,0.5-1.1,0.7l-0.1,0.1c-1.1,1.8-6.9,1.8-8.7,1.8h-1.5c-0.6,0-0.6,0-0.7-0.6
				c-0.2-1-0.2-3.2-0.2-7.1v-2.2h3.3c3.2,0,3.9,0.2,4,0.4c0,0,0,0,0,0.1c0,0,0,0,0,0v2h2.5v-8h-2.5v2c0,0.5,0,0.5-0.3,0.6
				c-0.5,0.2-1.7,0.3-3.7,0.3h-3.3V7.5h2.9c4.6,0,6.2,0.8,6.4,1.1c0,0.4,0.2,1.3,1.3,1.3c1,0,1-0.3,1.5-4.5l0.1-0.7h-21.8v2.5h2.5
				C114.7,7.3,114.7,7.3,114.8,7.5"/>
			<path class="st0" d="M148.1,10.5v17.3c-0.2,0-0.4,0-0.7,0h-1.8v2.5h9.1v-2.5h-2.3c-0.9,0-0.9,0-1-0.8c-0.3-1.8-0.3-4.6-0.3-6.6
				v-9.1c1.9,2,17.4,18.1,17.4,18.1c0,0,0.2,0.2,0.2,0.2c0.6,0.6,0.9,1,1.5,1c0.6,0,1-0.4,1-1.1V7.3c0.2,0,0.4,0,0.7,0h1.8V4.8h-9.1
				v2.5h2.3c0.9,0,0.9,0,1,0.8c0.3,1.8,0.3,4.6,0.3,6.6v6.6c-1.9-1.9-15.8-16.4-15.8-16.4h-8.1v2.5h1.8
				C147.5,7.2,148.1,8.9,148.1,10.5"/>
			<path class="st0" d="M283.2,27.8c-1.4,0-1.5-0.2-2.6-1.2l0,0c-1.4-1.5-2.7-3.2-5.3-6.9c0,0-0.5-0.8-1-1.4
				c3.4-0.8,5.5-3.1,5.5-6.3c0-3.6-3.2-7.2-9.4-7.2h-12.9v2.5h2.5c0.6,0,0.6,0,0.7,0.3c0.2,0.6,0.3,2.1,0.3,4.3v16h0h-2.5v2.5h12.1
				v-2.5h-2.5c-0.6,0-0.6,0-0.7-0.3c-0.2-0.6-0.3-2.1-0.3-4.3v-4h1.6c2.9,5.2,6,9.6,7.3,10.6c0.6,0.4,1.4,0.4,2.5,0.4h5.4v-2.5
				H283.2z M268,16.7h-0.9V7.5h1.8c1,0,4.9,0.9,4.9,5.1C273.8,16.3,269.7,16.7,268,16.7"/>
			<path class="st0" d="M222,7.6c0.2,0.6,0.3,2.1,0.3,4.3v10.2c0,3.4,1.5,9,11.4,9c5.3,0,11.5-2.7,11.5-10.3V7.3c0.2,0,0.4,0,0.7,0
				h1.8V4.8h-9.1v2.5h2.3c0.9,0,0.9,0,1,0.7c0.3,1.8,0.3,4.6,0.3,6.6v6c0,6.5-4.7,7.5-7.4,7.5c-5.7,0-6.5-4-6.5-7.9V7.3h0h2.5V4.8
				h-12.1v2.5h2.5C221.9,7.3,221.9,7.3,222,7.6"/>
			<path class="st0" d="M99.1,23.8c-0.9,0-1.1,0.8-1.2,1.1l0,0.1c-0.4,2.2-5,3.3-7.2,3.3c-6.7,0-9.7-5.4-9.7-10.5
				c0-6.4,4.4-10.9,10.6-10.9c2.6,0,5.1,1.2,5.3,1.8c0,0,0,0.1,0,0.1c0.2,0.7,0.4,1.4,1.2,1.4c1.2,0,1.3-0.8,1.5-4l0-0.5l-0.4-0.2
				c-2.6-0.9-5-1.4-7.3-1.4c-9.8,0-17.3,6.2-17.3,14.4c0,7.9,5.5,12.6,14.8,12.6c3.5,0,7.3-0.7,10.2-2l0.3-0.1l0.3-3.3l0.1-0.8
				C100.3,24.3,99.8,23.8,99.1,23.8"/>
		</g>
		<polygon class="st0" points="5.1,49.7 0.1,56.8 70.8,56.8 65.5,49.7 		"/>
		<polygon class="st0" points="27.9,9 27.9,48.2 29.6,48.2 29.6,6.9 		"/>
		<polygon class="st0" points="35.3,0 34.5,1 34.5,48.2 36.2,48.2 36.2,1.1 		"/>
		<polygon class="st0" points="47.7,48.2 49.4,48.2 49.4,17.1 47.7,14.9 		"/>
		<polygon class="st0" points="41.1,48.2 42.9,48.2 42.9,9.1 41.1,7 		"/>
		<polygon class="st0" points="11.4,28.8 11.4,48.2 13.2,48.2 13.2,26.7 		"/>
		<polygon class="st0" points="8.1,32.8 8.1,48.2 9.9,48.2 9.9,30.7 		"/>
		<polygon class="st0" points="14.7,24.9 14.7,48.2 16.5,48.2 16.5,22.7 		"/>
		<polygon class="st0" points="21.3,16.9 21.3,48.2 23.1,48.2 23.1,14.8 		"/>
		<polygon class="st0" points="60.8,48.2 62.6,48.2 62.6,33 60.8,30.8 		"/>
		<polygon class="st0" points="64.2,48.2 65.3,48.2 65.3,36.3 64.2,34.8 		"/>
		<polygon class="st0" points="4.9,36.3 4.9,48.2 6.1,48.2 6.1,34.8 		"/>
		<polygon class="st0" points="57.5,48.2 59.3,48.2 59.3,29 57.5,26.9 		"/>
		<polygon class="st0" points="54.2,48.2 56,48.2 56,25 54.2,22.9 		"/>
	</g>
	<g>
		<path class="st0" d="M297,40.9c-3.2,0-5.8,2.6-5.8,5.8s2.6,5.8,5.8,5.8c3.2,0,5.8-2.6,5.8-5.8C302.9,43.4,300.3,40.9,297,40.9z
			 M301.7,46.7c0,2.6-2.1,4.7-4.7,4.7c-2.6,0-4.7-2.1-4.7-4.7c0-2.6,2.1-4.7,4.7-4.7C299.6,42,301.7,44.1,301.7,46.7z"/>
		<path class="st0" d="M299.7,45.4c0-1.2-0.9-2.1-2.2-2.1h-2.8v6.8h1.2v-2.6h0.9l1.7,2.6h1.5l-1.8-2.6
			C298.8,47.3,299.7,46.7,299.7,45.4z M298.5,45.4c0,0.6-0.4,1-1,1h-1.6v-2h1.6C298.1,44.4,298.5,44.8,298.5,45.4z"/>
	</g>
</g>
</svg>
