<svg id="Group_1733" data-name="Group 1733" xmlns="http://www.w3.org/2000/svg" width="244.617" height="66.06" viewBox="0 0 244.617 66.06">
  <defs>
    <style>
      .cls-1 {
        fill: #fff;
      }
    </style>
  </defs>
  <g id="Group_1727" data-name="Group 1727">
    <path id="Path_1850" data-name="Path 1850" class="cls-1" d="M.1,14.92V6.726q0-3.466,1.88-5.1A7.215,7.215,0,0,1,6.884,0a7.941,7.941,0,0,1,5.037,1.527A4.889,4.889,0,0,1,13.874,5.58a1.959,1.959,0,0,1-.44,1.483,2.177,2.177,0,0,1-1.469.4q-1.881,0-1.909-1.2c-.02-.254-.044-.475-.074-.661a3.39,3.39,0,0,0-.234-.735A2.539,2.539,0,0,0,9.263,4.1a2.35,2.35,0,0,0-.881-.529A3.95,3.95,0,0,0,7,3.348q-3.084,0-3.084,3.378V14.92q0,3.378,3.143,3.378A3.715,3.715,0,0,0,8.631,18a1.864,1.864,0,0,0,.911-.837,4.5,4.5,0,0,0,.382-.97,5.741,5.741,0,0,0,.132-1.042q.089-1.2,1.88-1.2a2.238,2.238,0,0,1,1.483.4,1.915,1.915,0,0,1,.455,1.482,5.172,5.172,0,0,1-1.953,4.23,7.787,7.787,0,0,1-5.067,1.586,7.161,7.161,0,0,1-4.89-1.63Q.1,18.386.1,14.92Z"/>
    <path id="Path_1851" data-name="Path 1851" class="cls-1" d="M17.683,20.266V1.2a1,1,0,0,1,.5-.881A2.105,2.105,0,0,1,19.357,0H29.813a.991.991,0,0,1,.9.5,2.133,2.133,0,0,1,.309,1.146,2.166,2.166,0,0,1-.324,1.2,1,1,0,0,1-.881.5H21.5V9.222h4.465a1.025,1.025,0,0,1,.881.456,1.8,1.8,0,0,1,.323,1.071,1.765,1.765,0,0,1-.309,1.014,1.014,1.014,0,0,1-.9.455H21.5v5.9h8.312a1,1,0,0,1,.881.5,2.164,2.164,0,0,1,.324,1.2,2.133,2.133,0,0,1-.309,1.146.991.991,0,0,1-.9.5H19.357a2.106,2.106,0,0,1-1.174-.324A1,1,0,0,1,17.683,20.266Z"/>
    <path id="Path_1852" data-name="Path 1852" class="cls-1" d="M34.656,20.266V1.2a.973.973,0,0,1,.558-.9A2.753,2.753,0,0,1,36.565,0a2.85,2.85,0,0,1,1.616.382,4.778,4.778,0,0,1,1.234,1.644l5.668,10.955V1.175a.942.942,0,0,1,.558-.881,3.251,3.251,0,0,1,2.7,0,.942.942,0,0,1,.558.881V20.266a.979.979,0,0,1-.573.88,2.667,2.667,0,0,1-1.336.324,2.3,2.3,0,0,1-2.2-1.2L38.475,8.459V20.266a.979.979,0,0,1-.573.88,2.949,2.949,0,0,1-2.688,0A.981.981,0,0,1,34.656,20.266Z"/>
    <path id="Path_1853" data-name="Path 1853" class="cls-1" d="M52.481,1.66A2.162,2.162,0,0,1,52.79.5a.988.988,0,0,1,.9-.5H66.109a.991.991,0,0,1,.9.5,2.161,2.161,0,0,1,.308,1.159,2.139,2.139,0,0,1-.323,1.188,1,1,0,0,1-.881.5H61.821V20.26a.989.989,0,0,1-.572.886,2.949,2.949,0,0,1-2.688,0A.99.99,0,0,1,58,20.26V3.348H53.686a1,1,0,0,1-.882-.487A2.125,2.125,0,0,1,52.481,1.66Z"/>
    <path id="Path_1854" data-name="Path 1854" class="cls-1" d="M70.838,14.92V1.175A.94.94,0,0,1,71.4.294a3.251,3.251,0,0,1,2.7,0,.942.942,0,0,1,.558.881V14.92q0,3.378,3.231,3.378t3.23-3.378V1.175a.942.942,0,0,1,.558-.881,3.251,3.251,0,0,1,2.7,0,.941.941,0,0,1,.559.881V14.92q0,3.465-1.924,5.1a8.9,8.9,0,0,1-10.25.014Q70.837,18.416,70.838,14.92Z"/>
    <path id="Path_1855" data-name="Path 1855" class="cls-1" d="M89.3,20.266V1.175a1.123,1.123,0,0,1,.352-.822A1.192,1.192,0,0,1,90.536,0h5.816q6.96,0,6.961,6.139a6.564,6.564,0,0,1-1.043,3.877,5.166,5.166,0,0,1-2.805,2l3.848,7.136a.718.718,0,0,1,.146.47,1.784,1.784,0,0,1-.763,1.366,2.5,2.5,0,0,1-1.615.631,1.448,1.448,0,0,1-1.322-.91L95.588,12.6H93.121v7.666a.981.981,0,0,1-.558.88,2.95,2.95,0,0,1-2.688,0A.979.979,0,0,1,89.3,20.266ZM93.121,9.6h3.231q3.143,0,3.142-3.114,0-3.141-3.142-3.142H93.121Z"/>
    <path id="Path_1856" data-name="Path 1856" class="cls-1" d="M105.982,1.586A1.333,1.333,0,0,1,106.819.47,3.411,3.411,0,0,1,108.508,0a1.244,1.244,0,0,1,1.175.764l4.464,8.488L118.641.764A1.262,1.262,0,0,1,119.786,0a3.411,3.411,0,0,1,1.689.47,1.335,1.335,0,0,1,.838,1.116.742.742,0,0,1-.088.382l-6.051,10.514a.675.675,0,0,0-.118.382v7.4a.981.981,0,0,1-.558.88,2.947,2.947,0,0,1-2.687,0,.979.979,0,0,1-.573-.88v-7.4a.654.654,0,0,0-.088-.382L106.07,1.968A1.165,1.165,0,0,1,105.982,1.586Z"/>
    <path id="Path_1857" data-name="Path 1857" class="cls-1" d="M132.563,20.266V1.175a.942.942,0,0,1,.558-.881,3.251,3.251,0,0,1,2.7,0,.942.942,0,0,1,.558.881V8.841h6.608V1.175a.943.943,0,0,1,.559-.881,3.251,3.251,0,0,1,2.7,0,.944.944,0,0,1,.558.881V20.266a.979.979,0,0,1-.573.88,2.947,2.947,0,0,1-2.687,0,.982.982,0,0,1-.559-.88v-8.43h-6.608v8.43a.979.979,0,0,1-.572.88,2.95,2.95,0,0,1-2.688,0A.981.981,0,0,1,132.563,20.266Z"/>
    <path id="Path_1858" data-name="Path 1858" class="cls-1" d="M151.043,14.92V6.726q0-3.495,1.865-5.111a8.594,8.594,0,0,1,10.03,0q1.878,1.615,1.879,5.111V14.92q0,3.495-1.879,5.11a8.59,8.59,0,0,1-10.03,0Q151.042,18.416,151.043,14.92Zm3.818,0q0,3.378,3.055,3.378Q161,18.3,161,14.92V6.726q0-3.376-3.084-3.378-3.056,0-3.055,3.378Z"/>
    <path id="Path_1859" data-name="Path 1859" class="cls-1" d="M169.041,20.266V1.909A1.8,1.8,0,0,1,169.584.47,2.008,2.008,0,0,1,170.949,0a3.072,3.072,0,0,1,1.675.382,4.744,4.744,0,0,1,1.292,1.644L177.528,8.6l3.614-6.579A4.632,4.632,0,0,1,182.448.382,3.146,3.146,0,0,1,184.137,0,2.011,2.011,0,0,1,185.5.47a1.8,1.8,0,0,1,.543,1.439V20.266a.979.979,0,0,1-.572.88,2.95,2.95,0,0,1-2.688,0,.981.981,0,0,1-.558-.88V7.636l-3.436,6.109a1.368,1.368,0,0,1-1.293.764,1.346,1.346,0,0,1-1.263-.764L172.858,7.4V20.266a.978.978,0,0,1-.572.88,2.947,2.947,0,0,1-2.687,0A.981.981,0,0,1,169.041,20.266Z"/>
    <path id="Path_1860" data-name="Path 1860" class="cls-1" d="M190.508,20.266V1.2a1,1,0,0,1,.5-.881A2.106,2.106,0,0,1,192.182,0h10.456a.989.989,0,0,1,.9.5,2.133,2.133,0,0,1,.309,1.146,2.182,2.182,0,0,1-.323,1.2,1,1,0,0,1-.881.5h-8.313V9.222h4.465a1.025,1.025,0,0,1,.881.456,1.8,1.8,0,0,1,.323,1.071,1.765,1.765,0,0,1-.308,1.014,1.016,1.016,0,0,1-.9.455h-4.465v5.9h8.313a1,1,0,0,1,.881.5,2.18,2.18,0,0,1,.323,1.2,2.133,2.133,0,0,1-.309,1.146.989.989,0,0,1-.9.5H192.182a2.107,2.107,0,0,1-1.175-.324A1,1,0,0,1,190.508,20.266Z"/>
  </g>
  <g id="Group_1728" data-name="Group 1728">
    <path id="Path_1861" data-name="Path 1861" class="cls-1" d="M0,54.507V39.431q0-5.958,3.186-8.756a12.147,12.147,0,0,1,8.315-2.8,13.149,13.149,0,0,1,8.523,2.616,8.3,8.3,0,0,1,3.238,6.761,3.117,3.117,0,0,1-.622,2.254,3.033,3.033,0,0,1-2.124.6q-2.694,0-2.746-1.813-.311-5.542-6.062-5.544-6.216,0-6.216,6.684V54.507q0,6.683,6.32,6.683a7.759,7.759,0,0,0,3.108-.544,3.515,3.515,0,0,0,1.788-1.581,8.979,8.979,0,0,0,.751-1.812,11.821,11.821,0,0,0,.311-1.917q.156-1.813,2.694-1.814a3.145,3.145,0,0,1,2.15.6,3.033,3.033,0,0,1,.648,2.254A8.644,8.644,0,0,1,20,63.366,12.994,12.994,0,0,1,11.45,66.06a12.049,12.049,0,0,1-8.29-2.8Q0,60.464,0,54.507Z"/>
    <path id="Path_1862" data-name="Path 1862" class="cls-1" d="M29.322,54.507V39.431q0-5.958,3.16-8.756a12.282,12.282,0,0,1,8.445-2.8,12.383,12.383,0,0,1,8.471,2.8q3.186,2.8,3.186,8.756V54.507q0,5.958-3.186,8.756a12.383,12.383,0,0,1-8.471,2.8,12.282,12.282,0,0,1-8.445-2.8Q29.322,60.464,29.322,54.507Zm5.492,0q0,6.683,6.113,6.683a6.05,6.05,0,0,0,4.559-1.658,6.968,6.968,0,0,0,1.606-5.025V39.431A6.972,6.972,0,0,0,45.486,34.4a6.058,6.058,0,0,0-4.559-1.658q-6.112,0-6.113,6.684Z"/>
    <path id="Path_1863" data-name="Path 1863" class="cls-1" d="M60.3,63.936V29.69q0-1.812,2.746-1.812a3.851,3.851,0,0,1,2.331.647,7.09,7.09,0,0,1,1.813,2.461l11.5,22.433V29.639a1.419,1.419,0,0,1,.8-1.321,4.508,4.508,0,0,1,3.885,0,1.421,1.421,0,0,1,.8,1.321v34.3a1.5,1.5,0,0,1-.8,1.321,3.64,3.64,0,0,1-1.943.492,3.5,3.5,0,0,1-3.263-2.02L65.795,40.156v23.78a1.494,1.494,0,0,1-.8,1.321,4.031,4.031,0,0,1-3.86,0A1.487,1.487,0,0,1,60.3,63.936Z"/>
    <path id="Path_1864" data-name="Path 1864" class="cls-1" d="M92.32,63.936V29.69q0-1.812,2.745-1.812a3.854,3.854,0,0,1,2.332.647,7.1,7.1,0,0,1,1.813,2.461l11.5,22.433V29.639a1.42,1.42,0,0,1,.8-1.321,4.508,4.508,0,0,1,3.885,0,1.42,1.42,0,0,1,.8,1.321v34.3a1.494,1.494,0,0,1-.8,1.321,3.645,3.645,0,0,1-1.943.492,3.5,3.5,0,0,1-3.264-2.02L97.812,40.156v23.78a1.5,1.5,0,0,1-.8,1.321,4.031,4.031,0,0,1-3.86,0A1.488,1.488,0,0,1,92.32,63.936Z"/>
    <path id="Path_1865" data-name="Path 1865" class="cls-1" d="M124.335,63.936V29.69a1.521,1.521,0,0,1,.727-1.32,2.965,2.965,0,0,1,1.709-.492h18.443a1.507,1.507,0,0,1,1.348.725,3.006,3.006,0,0,1,.466,1.658,3.076,3.076,0,0,1-.492,1.761,1.525,1.525,0,0,1-1.322.725H129.827V44.611h7.979a1.573,1.573,0,0,1,1.32.648,2.537,2.537,0,0,1,.492,1.58,2.455,2.455,0,0,1-.465,1.476,1.553,1.553,0,0,1-1.347.648h-7.979V60.879h15.387a1.527,1.527,0,0,1,1.322.725,3.086,3.086,0,0,1,.492,1.762,3,3,0,0,1-.466,1.657,1.5,1.5,0,0,1-1.348.726H126.771a2.957,2.957,0,0,1-1.709-.492A1.522,1.522,0,0,1,124.335,63.936Z"/>
    <path id="Path_1866" data-name="Path 1866" class="cls-1" d="M151.9,54.507V39.431q0-5.958,3.187-8.756a12.144,12.144,0,0,1,8.314-2.8,13.146,13.146,0,0,1,8.523,2.616,8.3,8.3,0,0,1,3.238,6.761,3.112,3.112,0,0,1-.622,2.254,3.032,3.032,0,0,1-2.124.6q-2.694,0-2.745-1.813-.312-5.542-6.062-5.544-6.217,0-6.217,6.684V54.507q0,6.683,6.321,6.683a7.766,7.766,0,0,0,3.108-.544,3.513,3.513,0,0,0,1.787-1.581,8.98,8.98,0,0,0,.751-1.812,11.811,11.811,0,0,0,.312-1.917q.154-1.813,2.693-1.814a3.148,3.148,0,0,1,2.151.6,3.033,3.033,0,0,1,.647,2.254,8.644,8.644,0,0,1-3.264,6.994,12.992,12.992,0,0,1-8.548,2.694,12.046,12.046,0,0,1-8.289-2.8Q151.9,60.464,151.9,54.507Z"/>
    <path id="Path_1867" data-name="Path 1867" class="cls-1" d="M178.89,30.391a3.29,3.29,0,0,1,.465-1.754,1.491,1.491,0,0,1,1.348-.759h21.5a1.5,1.5,0,0,1,1.347.732,3.161,3.161,0,0,1,.466,1.728,3.344,3.344,0,0,1-.492,1.858,1.509,1.509,0,0,1-1.321.759h-7.978V63.939a1.487,1.487,0,0,1-.829,1.319,3.686,3.686,0,0,1-1.917.491,3.649,3.649,0,0,1-1.943-.491,1.489,1.489,0,0,1-.8-1.319V32.955H180.7a1.5,1.5,0,0,1-1.321-.759A3.238,3.238,0,0,1,178.89,30.391Z"/>
  </g>
  <g id="Group_1732" data-name="Group 1732">
    <g id="Group_1729" data-name="Group 1729">
      <path id="Path_1868" data-name="Path 1868" class="cls-1" d="M215.478,62.153a1.45,1.45,0,0,1-1.371-1.921l10.085-29.277L214.138,6.547a1.449,1.449,0,0,1,2.679-1.1L227.08,30.357a1.451,1.451,0,0,1,.03,1.024L216.848,61.176A1.45,1.45,0,0,1,215.478,62.153Z"/>
    </g>
    <g id="Group_1730" data-name="Group 1730">
      <path id="Path_1869" data-name="Path 1869" class="cls-1" d="M225.845,59.421a.891.891,0,0,1-.281-.047.868.868,0,0,1-.543-1.1l9.3-27.314L225.041,8.724a.871.871,0,0,1,1.607-.671l9.41,22.536a.872.872,0,0,1,.02.616L226.669,58.83A.872.872,0,0,1,225.845,59.421Z"/>
    </g>
    <g id="Group_1731" data-name="Group 1731">
      <path id="Path_1870" data-name="Path 1870" class="cls-1" d="M236.194,54.97a.7.7,0,0,1-.223-.037.712.712,0,0,1-.453-.9l7.623-23.04-7.6-17.545a.713.713,0,0,1,1.309-.567l7.709,17.794a.712.712,0,0,1,.022.508l-7.709,23.3A.715.715,0,0,1,236.194,54.97Z"/>
    </g>
  </g>
</svg>
