<svg xmlns="http://www.w3.org/2000/svg" xmlns:xlink="http://www.w3.org/1999/xlink" width="286" height="196.091" viewBox="0 0 286 196.091">
  <defs>
    <style>
      .cls-1 {
        fill: none;
      }

      .cls-2 {
        fill: #fce200;
      }

      .cls-3 {
        clip-path: url(#clip-path);
      }

      .cls-4 {
        fill: #fff;
      }

      .cls-5 {
        fill: #333;
      }
    </style>
    <clipPath id="clip-path">
      <rect id="Rectangle_332" data-name="Rectangle 332" class="cls-1" width="286" height="196.091"/>
    </clipPath>
  </defs>
  <g id="Group_1765" data-name="Group 1765" transform="translate(-197.254 348.105)">
    <path id="Path_1946" data-name="Path 1946" class="cls-2" d="M555.319-124.952H598.6v34.666H555.309L544.538-100.43v-14.3Z" transform="translate(-150.015 -96.395)"/>
    <g id="Group_1764" data-name="Group 1764" transform="translate(197.254 -348.105)">
      <g id="Group_1763" data-name="Group 1763" class="cls-3">
        <path id="Path_1947" data-name="Path 1947" class="cls-4" d="M297.131-258.526l.84-.305a9.817,9.817,0,0,0,1.927-1.317,23.354,23.354,0,0,0,2.251-2.156,10.6,10.6,0,0,0,1.947-3.263,11.4,11.4,0,0,0,.82-4.293q0-5.915-5.342-10.189T285-284.322H258.284V-229.6H286.56c7.249,0,22.263-1.35,22.263-15.645,0-10.933-11.438-13.178-11.693-13.28M275.984-271.5H282.5a4.513,4.513,0,0,1,3.2,1.153,3.736,3.736,0,0,1,1.24,2.85,3.737,3.737,0,0,1-1.24,2.851,4.513,4.513,0,0,1-3.2,1.153h-6.521ZM288.161-243.7a5.381,5.381,0,0,1-3.842,1.441h-8.335v-9.824h8.335a5.429,5.429,0,0,1,3.842,1.42,4.554,4.554,0,0,1,1.528,3.471,4.622,4.622,0,0,1-1.528,3.493" transform="translate(-223.617 320.553)"/>
        <path id="Path_1948" data-name="Path 1948" class="cls-4" d="M321.934-151.887l.84-.306a9.791,9.791,0,0,0,1.927-1.317,23.552,23.552,0,0,0,2.251-2.155,10.612,10.612,0,0,0,1.947-3.263,11.406,11.406,0,0,0,.82-4.293q0-5.916-5.342-10.189T309.8-177.684H283.139v54.722h28.225c7.249,0,22.263-1.35,22.263-15.646,0-10.933-11.439-13.178-11.693-13.279m-21.1-12.974h6.472a4.511,4.511,0,0,1,3.2,1.154,3.738,3.738,0,0,1,1.241,2.852A3.738,3.738,0,0,1,310.511-158a4.511,4.511,0,0,1-3.2,1.154h-6.472Zm12.126,27.8a5.381,5.381,0,0,1-3.843,1.441h-8.283v-9.824h8.283a5.429,5.429,0,0,1,3.843,1.419,4.555,4.555,0,0,1,1.529,3.472,4.623,4.623,0,0,1-1.529,3.493" transform="translate(-234.354 274.489)"/>
        <path id="Path_1949" data-name="Path 1949" class="cls-4" d="M393.452-242.88H367v-8.586h21.6v-12.517H367V-271h26.516v-13.318H349.3V-229.6h44.152Z" transform="translate(-262.933 320.553)"/>
        <path id="Path_1950" data-name="Path 1950" class="cls-4" d="M506.691-284.322V-271h14.463v41.4h17.592V-271h14.462v-13.318Z" transform="translate(-330.92 320.553)"/>
        <path id="Path_1951" data-name="Path 1951" class="cls-4" d="M452.866-244.947a5.94,5.94,0,0,1-4.026,1.259,11.843,11.843,0,0,1-5.361-1.412,18.547,18.547,0,0,1-3.721-2.27c-.353-.325-.659-.611-.926-.865l-10.439,9.915.661.661a20.023,20.023,0,0,0,2.938,2.366,44.24,44.24,0,0,0,4.6,2.748,29.39,29.39,0,0,0,6.526,2.347,33.3,33.3,0,0,0,8.071.973q10.38,0,16.523-5.38a16.661,16.661,0,0,0,6.144-12.974,16.11,16.11,0,0,0-1.775-7.709,12.963,12.963,0,0,0-4.427-5,41.464,41.464,0,0,0-5.743-3.015,35.953,35.953,0,0,0-5.271-1.847c-.159-.04-.316-.082-.472-.118a17.449,17.449,0,0,1-4.407-1.6Q450-267.843,450-269.1a3.108,3.108,0,0,1,1.221-2.519,5.377,5.377,0,0,1,3.473-.992,9.3,9.3,0,0,1,6.886,2.768l10.476-9.95-.19-.22a10.451,10.451,0,0,0-2.366-2,38.973,38.973,0,0,0-3.911-2.27,25.321,25.321,0,0,0-5.8-1.965,33.187,33.187,0,0,0-7.46-.821q-9.846,0-15.856,5.209t-6.01,12.23a16.241,16.241,0,0,0,1.335,6.716,13.169,13.169,0,0,0,3.4,4.732,25.05,25.05,0,0,0,4.6,3.091,31.873,31.873,0,0,0,4.289,1.872c.275.1.549.2.824.283q2.576.821,4.656,1.526a17.822,17.822,0,0,1,3.415,1.508A2.272,2.272,0,0,1,454.316-248a3.9,3.9,0,0,1-1.45,3.053" transform="translate(-297.098 321.742)"/>
        <path id="Path_1952" data-name="Path 1952" class="cls-4" d="M403.672-145.15a6.575,6.575,0,0,1-6.527,6.574,6.575,6.575,0,0,1-6.623-6.574v-32.5H372.81v31.673a23.65,23.65,0,0,0,23.65,23.65h1.109a23.65,23.65,0,0,0,23.65-23.65v-31.673H403.672Z" transform="translate(-273.088 274.474)"/>
        <path id="Path_1953" data-name="Path 1953" class="cls-4" d="M488.986-159.038l-11.6-18.611H459.653l20.483,35.184v19.538h17.7v-19.538l20.483-35.184H500.585Z" transform="translate(-310.602 274.474)"/>
        <path id="Path_1954" data-name="Path 1954" class="cls-5" d="M556.433-96.113a2.142,2.142,0,0,1-2.143,2.141,2.142,2.142,0,0,1-2.142-2.141,2.142,2.142,0,0,1,2.142-2.141,2.142,2.142,0,0,1,2.143,2.141" transform="translate(-350.557 240.178)"/>
        <path id="Path_1955" data-name="Path 1955" class="cls-4" d="M562.589-150.335H561.3v-.408h3.08v.408H563.1v3.739h-.514Zm2.581-.408h.71l1.33,3.265,1.317-3.265h.711v4.147h-.5v-3.514l-1.462,3.514h-.185l-1.461-3.514v3.514h-.46Z" transform="translate(-354.509 262.851)"/>
      </g>
    </g>
  </g>
</svg>
